# xmcd
#
# Track frame offsets:
#	150
#	19710
#	33862
#	46602
#	62080
#	83265
#	105070
#	125379
#	150532
#	167865
#	187982
#	216855
#	233452
#	245920
#
# Disc length: 3461
#
# Revision: 1
# Processed by: cddbd v1.5.1PL0 Copyright (c) Steve Scherf et al.
# Submitted via: audiograbber 1.81.01
# Normalized: r0:DSETVAR1,TDELIM( - )
#
DISCID=9b0d830e
DTITLE=Various Artist - Harmonica Blues
DYEAR=2001
DGENRE=Blues
TTITLE0=Sugar Ray - Money Marbles And Chalk
TTITLE1=Lee McBee And The Passions - I Been Abused
TTITLE2=The Juke Joints - Mojo Hand
TTITLE3=Willie Cobbs - Mean Old World
TTITLE4=Mark Hummel - Lost In The Shuffle
TTITLE5=Magic Dick and Jay Geils - Can't Hold Out Much Longer
TTITLE6=Big Shoulders - Talk To Me
TTITLE7=Satan and Adam - Unlucky In Love
TTITLE8=Mike Morgan - She's Taking Me To Heaven
TTITLE9=Gary Primich - Jenny Brown
TTITLE10=Little Mike And The Tornadoes - Nobody Knows New York
TTITLE11=James Harman - Leavin' For Memphis
TTITLE12=Johnny Sansone - Stink Bait
TTITLE13=John Hammond - Key To The Highway
EXTD=
EXTT0=
EXTT1=
EXTT2=
EXTT3=
EXTT4=
EXTT5=
EXTT6=
EXTT7=
EXTT8=
EXTT9=
EXTT10=
EXTT11=
EXTT12=
EXTT13=
PLAYORDER=
